<svg width="23" height="23" viewBox="0 0 23 23" fill="none" xmlns="http://www.w3.org/2000/svg">
<path d="M18.2423 16.4101H6.78603C6.31888 16.4078 5.868 16.2413 5.51493 15.9407C5.16186 15.6401 4.92992 15.2252 4.86106 14.7711L2.95168 2.34847C2.93289 2.2131 2.86498 2.08896 2.76044 1.99889C2.65591 1.90882 2.52178 1.8589 2.38276 1.85831H1.19816C0.99147 1.85831 0.793241 1.77761 0.647087 1.63398C0.500932 1.49035 0.418823 1.29555 0.418823 1.09242C0.418823 0.889295 0.500932 0.694489 0.647087 0.550858C0.793241 0.407226 0.99147 0.326535 1.19816 0.326535H2.36717C2.88548 0.321122 3.38822 0.500489 3.78227 0.831413C4.17633 1.16234 4.43499 1.62239 4.51036 2.12637L4.85327 4.34743H20.6115C21.1076 4.33655 21.5903 4.50559 21.9676 4.82228C22.2456 5.0616 22.4484 5.37398 22.5519 5.72268C22.6555 6.07138 22.6555 6.44188 22.5521 6.79061L20.0972 15.0315C19.9799 15.4267 19.7361 15.7743 19.402 16.0226C19.0679 16.2709 18.6612 16.4068 18.2423 16.4101ZM5.0559 5.8792L6.40416 14.5414C6.41564 14.6348 6.46171 14.7208 6.53358 14.7829C6.60545 14.8451 6.69809 14.879 6.79383 14.8784H18.2501C18.3344 14.8784 18.4165 14.8515 18.4839 14.8018C18.5514 14.7521 18.6006 14.6822 18.6242 14.6026L21.0557 6.36937C21.0727 6.3123 21.0759 6.25214 21.0651 6.19365C21.0542 6.13515 21.0297 6.07994 20.9934 6.03238C20.9571 5.98482 20.91 5.94622 20.8559 5.91963C20.8018 5.89305 20.7422 5.8792 20.6817 5.8792H5.0559ZM8.79673 22.5372C8.29578 22.5372 7.80608 22.3912 7.38955 22.1177C6.97302 21.8442 6.64838 21.4555 6.45668 21.0006C6.26497 20.5458 6.21481 20.0453 6.31254 19.5625C6.41027 19.0796 6.6515 18.6361 7.00573 18.288C7.35996 17.9399 7.81127 17.7028 8.30259 17.6068C8.79392 17.5107 9.30319 17.56 9.76601 17.7484C10.2288 17.9368 10.6244 18.2559 10.9027 18.6652C11.181 19.0745 11.3296 19.5558 11.3296 20.0481C11.3296 20.375 11.2641 20.6986 11.1368 21.0006C11.0095 21.3026 10.8229 21.577 10.5877 21.8082C10.3525 22.0393 10.0733 22.2227 9.76601 22.3477C9.45871 22.4728 9.12935 22.5372 8.79673 22.5372ZM8.79673 19.0907C8.60406 19.0907 8.41571 19.1469 8.25551 19.2521C8.0953 19.3573 7.97044 19.5068 7.89671 19.6817C7.82298 19.8567 7.80368 20.0491 7.84127 20.2349C7.87886 20.4206 7.97164 20.5912 8.10788 20.725C8.24412 20.8589 8.41771 20.9501 8.60668 20.987C8.79565 21.024 8.99152 21.005 9.16953 20.9326C9.34754 20.8601 9.49968 20.7374 9.60673 20.58C9.71377 20.4225 9.7709 20.2374 9.7709 20.0481C9.7709 19.7942 9.66827 19.5507 9.48558 19.3711C9.30288 19.1916 9.0551 19.0907 8.79673 19.0907ZM16.5356 22.5372C16.0346 22.5372 15.5449 22.3912 15.1284 22.1177C14.7119 21.8442 14.3872 21.4555 14.1955 21.0006C14.0038 20.5458 13.9537 20.0453 14.0514 19.5625C14.1491 19.0796 14.3904 18.6361 14.7446 18.288C15.0988 17.9399 15.5501 17.7028 16.0414 17.6068C16.5328 17.5107 17.042 17.56 17.5049 17.7484C17.9677 17.9368 18.3633 18.2559 18.6416 18.6652C18.9199 19.0745 19.0684 19.5558 19.0684 20.0481C19.0684 20.7082 18.8016 21.3414 18.3266 21.8082C17.8516 22.275 17.2073 22.5372 16.5356 22.5372ZM16.5356 19.0907C16.3429 19.0907 16.1546 19.1469 15.9944 19.2521C15.8342 19.3573 15.7093 19.5068 15.6356 19.6817C15.5618 19.8567 15.5425 20.0491 15.5801 20.2349C15.6177 20.4206 15.7105 20.5912 15.8467 20.725C15.983 20.8589 16.1566 20.9501 16.3455 20.987C16.5345 21.024 16.7304 21.005 16.9084 20.9326C17.0864 20.8601 17.2385 20.7374 17.3456 20.58C17.4526 20.4225 17.5098 20.2374 17.5098 20.0481C17.5098 19.7942 17.4071 19.5507 17.2244 19.3711C17.0417 19.1916 16.7939 19.0907 16.5356 19.0907Z" fill="#C4A370"/>
</svg>
