<svg width="24" height="19" viewBox="0 0 24 19" fill="none" xmlns="http://www.w3.org/2000/svg">
<path d="M23.3636 10.3973L18.5059 5.53964C18.3972 5.4302 18.2678 5.34343 18.1253 5.28439C17.9827 5.22535 17.8299 5.19519 17.6756 5.19568H10.9565V5.97829H12.913V11.8479H13.6956V5.97829H17.6756C17.7271 5.97825 17.778 5.98836 17.8255 6.00803C17.8731 6.0277 17.9163 6.05656 17.9526 6.09294L18.6206 6.7609H16.8261C16.6185 6.7609 16.4195 6.84335 16.2727 6.99012C16.1259 7.13689 16.0435 7.33595 16.0435 7.54351V11.0652C16.0435 11.2728 16.1259 11.4719 16.2727 11.6186C16.4195 11.7654 16.6185 11.8479 16.8261 11.8479H22.6956V14.9783C22.6956 15.0821 22.6544 15.1816 22.581 15.255C22.5077 15.3284 22.4081 15.3696 22.3043 15.3696H21.4904C21.3969 14.7181 21.0716 14.1222 20.5742 13.6912C20.0768 13.2602 19.4408 13.0229 18.7826 13.0229C18.1244 13.0229 17.4884 13.2602 16.991 13.6912C16.4936 14.1222 16.1683 14.7181 16.0748 15.3696H10.5339C10.4403 14.7181 10.1151 14.1222 9.61769 13.6912C9.12033 13.2602 8.48424 13.0229 7.82608 13.0229C7.16793 13.0229 6.53184 13.2602 6.03448 13.6912C5.53711 14.1222 5.21182 14.7181 5.11826 15.3696H4.30435C4.20057 15.3696 4.10104 15.3284 4.02765 15.255C3.95427 15.1816 3.91304 15.0821 3.91304 14.9783V11.4566H3.13043V14.9783C3.13043 15.2896 3.25411 15.5882 3.47426 15.8084C3.69442 16.0285 3.99301 16.1522 4.30435 16.1522H5.11826C5.20367 16.7472 5.48302 17.2974 5.913 17.7174H0V18.5H18.7826C19.4406 18.4988 20.0762 18.2609 20.5733 17.8299C21.0704 17.3988 21.3959 16.8034 21.4904 16.1522H22.3043C22.6157 16.1522 22.9143 16.0285 23.1344 15.8084C23.3546 15.5882 23.4783 15.2896 23.4783 14.9783V10.6739C23.4782 10.5702 23.437 10.4707 23.3636 10.3973ZM5.86956 15.7609C5.86956 15.3739 5.98431 14.9957 6.1993 14.6739C6.41428 14.3522 6.71985 14.1014 7.07736 13.9533C7.43486 13.8052 7.82825 13.7665 8.20778 13.842C8.58731 13.9175 8.93593 14.1038 9.20955 14.3774C9.48318 14.6511 9.66952 14.9997 9.74501 15.3792C9.8205 15.7587 9.78176 16.1521 9.63367 16.5096C9.48559 16.8671 9.23482 17.1727 8.91307 17.3877C8.59132 17.6027 8.21305 17.7174 7.82608 17.7174C7.30737 17.7168 6.81008 17.5105 6.4433 17.1437C6.07652 16.7769 5.87018 16.2796 5.86956 15.7609ZM9.73917 17.7174C10.1691 17.2974 10.4485 16.7472 10.5339 16.1522H16.0748C16.1602 16.7472 16.4395 17.2974 16.8695 17.7174H9.73917ZM18.7826 17.7174C18.3956 17.7174 18.0174 17.6027 17.6956 17.3877C17.3739 17.1727 17.1231 16.8671 16.975 16.5096C16.8269 16.1521 16.7882 15.7587 16.8637 15.3792C16.9392 14.9997 17.1255 14.6511 17.3991 14.3774C17.6728 14.1038 18.0214 13.9175 18.4009 13.842C18.7804 13.7665 19.1738 13.8052 19.5313 13.9533C19.8888 14.1014 20.1944 14.3522 20.4094 14.6739C20.6244 14.9957 20.7391 15.3739 20.7391 15.7609C20.7385 16.2796 20.5322 16.7769 20.1654 17.1437C19.7986 17.5105 19.3013 17.7168 18.7826 17.7174ZM16.8261 11.0652V7.54351H19.4032L22.6956 10.8359V11.0652H16.8261Z" fill="#EB9635"/>
<path d="M8.21718 15.3695H7.43457V16.1521H8.21718V15.3695Z" fill="#EB9635"/>
<path d="M19.1742 15.3695H18.3916V16.1521H19.1742V15.3695Z" fill="#EB9635"/>
<path d="M1.95652 14.1957H0V14.9783H1.95652V14.1957Z" fill="#EB9635"/>
<path d="M1.95614 12.6304H0.782227V13.413H1.95614V12.6304Z" fill="#EB9635"/>
<path d="M1.95644 11.0652H1.17383V11.8478H1.95644V11.0652Z" fill="#EB9635"/>
<path d="M5.08695 10.6739C6.09306 10.6739 7.07657 10.3756 7.91311 9.81661C8.74966 9.25764 9.40167 8.46317 9.78669 7.53365C10.1717 6.60413 10.2724 5.58131 10.0762 4.59454C9.87988 3.60777 9.3954 2.70136 8.68397 1.98994C7.97255 1.27851 7.06614 0.794028 6.07937 0.597747C5.0926 0.401465 4.06978 0.502204 3.14026 0.887224C2.21074 1.27224 1.41627 1.92425 0.857306 2.7608C0.298345 3.59734 0 4.58085 0 5.58696C0.00155347 6.93562 0.537998 8.22861 1.49165 9.18226C2.4453 10.1359 3.73829 10.6724 5.08695 10.6739ZM5.08695 1.28261C5.93827 1.28261 6.77048 1.53506 7.47832 2.00802C8.18617 2.48099 8.73787 3.15324 9.06365 3.93975C9.38944 4.72627 9.47468 5.59173 9.30859 6.42669C9.14251 7.26166 8.73256 8.02862 8.13059 8.63059C7.52861 9.23256 6.76165 9.64251 5.92669 9.8086C5.09173 9.97468 4.22627 9.88944 3.43975 9.56365C2.65324 9.23787 1.98099 8.68617 1.50802 7.97832C1.03505 7.27048 0.782608 6.43828 0.782608 5.58696C0.783955 4.44579 1.23788 3.35174 2.04481 2.54481C2.85174 1.73788 3.94578 1.28396 5.08695 1.28261Z" fill="#EB9635"/>
<path d="M5.08679 9.10866C5.19056 9.10864 5.29007 9.0674 5.36344 8.99401C5.61544 8.74201 7.82592 6.48301 7.82592 4.80432C7.82592 4.07785 7.53733 3.38114 7.02364 2.86746C6.50996 2.35377 5.81325 2.06519 5.08679 2.06519C4.36032 2.06519 3.66362 2.35377 3.14993 2.86746C2.63624 3.38114 2.34766 4.07785 2.34766 4.80432C2.34766 6.48301 4.55813 8.74201 4.81013 8.99401C4.8835 9.0674 4.98301 9.10864 5.08679 9.10866ZM5.08679 2.84779C5.6055 2.84842 6.10278 3.05475 6.46957 3.42153C6.83635 3.78832 7.04269 4.2856 7.04331 4.80432C7.04331 5.8084 5.81187 7.35992 5.08679 8.15036C4.3617 7.35992 3.13026 5.8084 3.13026 4.80432C3.13089 4.2856 3.33722 3.78832 3.704 3.42153C4.07079 3.05475 4.56807 2.84842 5.08679 2.84779Z" fill="#EB9635"/>
<path d="M6.26093 4.80441C6.26093 4.57223 6.19208 4.34527 6.06309 4.15222C5.9341 3.95917 5.75075 3.8087 5.53625 3.71985C5.32174 3.631 5.08571 3.60775 4.85799 3.65305C4.63027 3.69835 4.4211 3.81015 4.25692 3.97433C4.09274 4.1385 3.98094 4.34767 3.93564 4.57539C3.89035 4.80311 3.91359 5.03914 4.00245 5.25365C4.0913 5.46815 4.24176 5.65149 4.43481 5.78048C4.62786 5.90948 4.85483 5.97832 5.08701 5.97832C5.39835 5.97832 5.69694 5.85464 5.9171 5.63449C6.13725 5.41434 6.26093 5.11575 6.26093 4.80441ZM4.6957 4.80441C4.6957 4.72702 4.71865 4.65136 4.76165 4.58701C4.80465 4.52266 4.86576 4.47251 4.93726 4.44289C5.00876 4.41327 5.08744 4.40552 5.16335 4.42062C5.23925 4.43572 5.30898 4.47299 5.3637 4.52771C5.41843 4.58244 5.4557 4.65216 5.4708 4.72807C5.48589 4.80397 5.47815 4.88265 5.44853 4.95415C5.41891 5.02566 5.36876 5.08677 5.30441 5.12977C5.24006 5.17277 5.1644 5.19571 5.08701 5.19571C4.98323 5.19571 4.8837 5.15449 4.81031 5.0811C4.73693 5.00772 4.6957 4.90819 4.6957 4.80441Z" fill="#EB9635"/>
<path d="M16.4344 12.6304H14.8691V13.413H16.4344V12.6304Z" fill="#EB9635"/>
</svg>
