<svg width="48" height="34" viewBox="0 0 48 34" fill="none" xmlns="http://www.w3.org/2000/svg">
<path d="M46.7077 14.5991L39.6286 8.04682C39.4559 7.8721 39.2833 7.78473 39.0243 7.78473H31.1682C30.8229 7.78473 30.5639 7.8721 30.3049 7.95946V3.41656C30.3049 1.93138 29.1826 0.795654 27.7149 0.795654H3.54232C2.07469 0.795654 0.952393 1.93138 0.952393 3.41656V17.3947C0.952393 18.0936 1.21139 18.7052 1.64304 19.142C1.21139 19.5788 0.952393 20.1903 0.952393 20.8893V26.1311C0.952393 27.6162 2.07469 28.752 3.54232 28.752H6.13224C6.13224 31.635 8.46317 33.9938 11.3121 33.9938C14.161 33.9938 16.4919 31.635 16.4919 28.752H27.7149C28.4056 28.752 29.0099 28.4899 29.4416 28.0531C29.8732 28.4899 30.4775 28.752 31.1682 28.752H32.0315C32.0315 31.635 34.3624 33.9938 37.2113 33.9938C40.0602 33.9938 42.3912 31.635 42.3912 28.752H44.9811C46.4487 28.752 47.571 27.6162 47.571 26.1311V16.5211C47.571 15.8222 47.2257 15.1233 46.7077 14.5991ZM2.67901 3.41656C2.67901 2.89238 3.02433 2.54292 3.54232 2.54292H27.7149C28.2329 2.54292 28.5783 2.89238 28.5783 3.41656V10.4056V17.3947C28.5783 17.9189 28.2329 18.2683 27.7149 18.2683H3.54232C3.02433 18.2683 2.67901 17.9189 2.67901 17.3947V3.41656ZM11.3121 32.2465C9.41281 32.2465 7.85886 30.674 7.85886 28.752C7.85886 26.83 9.41281 25.2574 11.3121 25.2574C13.2114 25.2574 14.7653 26.83 14.7653 28.752C14.7653 30.674 13.2114 32.2465 11.3121 32.2465ZM27.7149 27.0047H16.1466C15.456 24.9953 13.5567 23.5102 11.3121 23.5102C9.06749 23.5102 7.16821 24.9953 6.47756 27.0047H3.54232C3.02433 27.0047 2.67901 26.6552 2.67901 26.1311V20.8893C2.67901 20.3651 3.02433 20.0156 3.54232 20.0156H27.7149C28.2329 20.0156 28.5783 20.3651 28.5783 20.8893V26.1311C28.5783 26.6552 28.2329 27.0047 27.7149 27.0047ZM37.2113 32.2465C35.3121 32.2465 33.7581 30.674 33.7581 28.752C33.7581 26.83 35.3121 25.2574 37.2113 25.2574C39.1106 25.2574 40.6646 26.83 40.6646 28.752C40.6646 30.674 39.1106 32.2465 37.2113 32.2465ZM45.8444 26.1311C45.8444 26.6552 45.4991 27.0047 44.9811 27.0047H42.2185C42.1322 27.0047 42.1322 27.0047 42.0459 27.0047C41.3552 24.9953 39.4559 23.5102 37.125 23.5102C34.8804 23.5102 32.9811 24.9953 32.2905 27.0047H31.1682C30.6502 27.0047 30.3049 26.6552 30.3049 26.1311V20.8893V17.3947V10.4056C30.3049 9.88146 30.6502 9.532 31.1682 9.532H38.679L45.5854 15.9095C45.7581 16.0843 45.8444 16.3464 45.8444 16.5211V26.1311Z" fill="#C4A370"/>
</svg>
