<svg width="32" height="32" viewBox="0 0 32 32" fill="none" xmlns="http://www.w3.org/2000/svg">
<path d="M15.2605 30.1047H4.83982C3.26724 30.1047 1.9978 28.8353 1.9978 27.2627V4.52659C1.9978 2.954 3.26724 1.68457 4.83982 1.68457H27.576C29.1485 1.68457 30.418 2.954 30.418 4.52659V27.2627C30.418 28.8353 29.1485 30.1047 27.576 30.1047H20.9446V19.684H23.7866L25.6813 14.9473H20.9446V11.158C20.9446 10.1159 21.7972 10.2106 22.8393 10.2106H24.7339V5.47393H20.9446C19.372 5.47393 17.951 6.11812 16.9279 7.14124C15.9047 8.16437 15.2605 9.58538 15.2605 11.158V14.9473H11.4712V19.684H15.2605V30.1047Z" stroke="#C4A370" stroke-width="3" stroke-miterlimit="10" stroke-linecap="round" stroke-linejoin="round"/>
</svg>
