<svg width="24" height="20" viewBox="0 0 24 20" fill="none" xmlns="http://www.w3.org/2000/svg">
<path d="M23.4564 5.66892C23.1564 4.26267 22.6689 3.10017 21.8064 2.18142C20.5877 0.831421 18.9939 0.175171 17.1001 0.175171H16.8564C14.8502 0.231421 13.2001 1.03767 12.0376 2.50017C11.6064 2.01267 11.0627 1.52517 10.4439 1.15017C9.22515 0.418921 7.8189 0.118921 6.22515 0.231421C4.46265 0.418921 3.0564 1.20642 2.0064 2.50017C0.90015 3.96267 0.3564 5.61267 0.41265 7.31892C0.4689 8.91267 0.9564 10.3752 1.87515 11.7814C2.9064 13.3752 4.20015 14.5939 5.36265 15.5689C7.01265 17.0314 8.9064 18.3252 11.2877 19.6564C11.5314 19.7877 11.7189 19.8439 11.9627 19.8439C12.2064 19.8439 12.3939 19.7877 12.6377 19.6564C14.7189 18.4939 16.5377 17.2752 18.1877 15.8689C19.8939 14.4627 21.1126 13.1127 22.0877 11.6502C23.4002 9.75642 23.8127 7.80642 23.4564 5.66892Z" fill="#F86F64"/>
</svg>
