<svg width="31" height="32" viewBox="0 0 31 32" fill="none" xmlns="http://www.w3.org/2000/svg">
<path d="M23.7749 5.98128C23.4152 5.98128 23.0635 6.08796 22.7644 6.28782C22.4653 6.48769 22.2322 6.77176 22.0945 7.10412C21.9568 7.43647 21.9208 7.80219 21.991 8.15502C22.0612 8.50785 22.2344 8.83195 22.4888 9.08632C22.7431 9.3407 23.0672 9.51393 23.4201 9.58412C23.7729 9.6543 24.1386 9.61828 24.471 9.48061C24.8033 9.34294 25.0874 9.10981 25.2873 8.8107C25.4871 8.51158 25.5938 8.15992 25.5938 7.80017C25.5938 7.31777 25.4022 6.85513 25.0611 6.51403C24.72 6.17292 24.2573 5.98128 23.7749 5.98128ZM30.7473 9.64938C30.7179 8.39177 30.4823 7.1475 30.0501 5.96613C29.6647 4.95533 29.0648 4.04004 28.2918 3.28326C27.5413 2.50633 26.6238 1.91027 25.609 1.54016C24.4307 1.09478 23.1851 0.853847 21.9257 0.827761C20.319 0.736816 19.8037 0.736816 15.6809 0.736816C11.558 0.736816 11.0427 0.736816 9.436 0.827761C8.17665 0.853847 6.931 1.09478 5.75275 1.54016C4.73974 1.91402 3.82311 2.50957 3.06988 3.28326C2.29295 4.03382 1.69689 4.95125 1.32678 5.96613C0.881396 7.14438 0.640468 8.39003 0.614382 9.64938C0.523437 11.2561 0.523438 11.7714 0.523438 15.8942C0.523438 20.0171 0.523437 20.5324 0.614382 22.1391C0.640468 23.3984 0.881396 24.6441 1.32678 25.8223C1.69689 26.8372 2.29295 27.7547 3.06988 28.5052C3.82311 29.2789 4.73974 29.8745 5.75275 30.2483C6.931 30.6937 8.17665 30.9346 9.436 30.9607C11.0427 31.0517 11.558 31.0517 15.6809 31.0517C19.8037 31.0517 20.319 31.0517 21.9257 30.9607C23.1851 30.9346 24.4307 30.6937 25.609 30.2483C26.6238 29.8782 27.5413 29.2821 28.2918 28.5052C29.0683 27.7513 29.6686 26.8352 30.0501 25.8223C30.4823 24.641 30.7179 23.3967 30.7473 22.1391C30.7473 20.5324 30.8383 20.0171 30.8383 15.8942C30.8383 11.7714 30.8383 11.2561 30.7473 9.64938ZM28.019 21.9572C28.008 22.9194 27.8337 23.8727 27.5036 24.7765C27.2616 25.4361 26.8729 26.0322 26.3668 26.5196C25.8752 27.0206 25.2804 27.4085 24.6237 27.6564C23.7199 27.9865 22.7666 28.1607 21.8045 28.1718C20.2887 28.2475 19.7279 28.2627 15.7415 28.2627C11.7551 28.2627 11.1943 28.2627 9.67852 28.1718C8.67948 28.1905 7.68471 28.0366 6.73798 27.717C6.11013 27.4564 5.5426 27.0695 5.07066 26.5802C4.56757 26.0933 4.18372 25.4968 3.94902 24.8371C3.57896 23.9203 3.3737 22.9454 3.34272 21.9572C3.34272 20.4415 3.25177 19.8806 3.25177 15.8942C3.25177 11.9078 3.25177 11.347 3.34272 9.83127C3.34951 8.84764 3.52908 7.87285 3.87323 6.95136C4.14007 6.31158 4.54965 5.74128 5.07066 5.28404C5.53117 4.76288 6.10029 4.34898 6.73798 4.07145C7.6619 3.73805 8.63569 3.5638 9.61789 3.5561C11.1336 3.5561 11.6945 3.46515 15.6809 3.46515C19.6673 3.46515 20.2281 3.46515 21.7438 3.5561C22.706 3.56713 23.6593 3.74139 24.5631 4.07145C25.2519 4.32708 25.8701 4.74269 26.3668 5.28404C26.8636 5.74965 27.2517 6.31889 27.5036 6.95136C27.8405 7.87435 28.0149 8.84873 28.019 9.83127C28.0948 11.347 28.1099 11.9078 28.1099 15.8942C28.1099 19.8806 28.0948 20.4415 28.019 21.9572ZM15.6809 8.11848C14.1436 8.12148 12.6417 8.58006 11.365 9.43629C10.0883 10.2925 9.09402 11.508 8.50781 12.9291C7.92161 14.3502 7.76978 15.9131 8.07152 17.4205C8.37326 18.9278 9.11502 20.3119 10.2031 21.3979C11.2911 22.4838 12.6767 23.2229 14.1846 23.5217C15.6925 23.8205 17.2552 23.6656 18.6752 23.0766C20.0951 22.4877 21.3086 21.491 22.1624 20.2126C23.0161 18.9343 23.4718 17.4315 23.4718 15.8942C23.4738 14.8713 23.2735 13.858 22.8825 12.9127C22.4915 11.9674 21.9175 11.1088 21.1934 10.3861C20.4694 9.66346 19.6096 9.0911 18.6635 8.70193C17.7175 8.31277 16.7038 8.11448 15.6809 8.11848ZM15.6809 20.9417C14.6826 20.9417 13.7067 20.6456 12.8767 20.091C12.0466 19.5364 11.3997 18.7481 11.0176 17.8258C10.6356 16.9035 10.5357 15.8886 10.7304 14.9095C10.9252 13.9304 11.4059 13.0311 12.1118 12.3252C12.8177 11.6193 13.7171 11.1386 14.6962 10.9438C15.6753 10.749 16.6901 10.849 17.6124 11.231C18.5347 11.6131 19.323 12.26 19.8776 13.09C20.4323 13.9201 20.7283 14.896 20.7283 15.8942C20.7283 16.5571 20.5977 17.2134 20.3441 17.8258C20.0904 18.4382 19.7186 18.9946 19.2499 19.4633C18.7812 19.932 18.2248 20.3038 17.6124 20.5574C17 20.8111 16.3437 20.9417 15.6809 20.9417Z" fill="#C4A370"/>
</svg>
