<svg width="15" height="19" viewBox="0 0 15 19" fill="none" xmlns="http://www.w3.org/2000/svg">
<path d="M14.7429 6.5718L10.9895 5.11796C11.1858 4.56014 11.2455 3.96339 11.1636 3.37774C11.0817 2.79209 10.8606 2.2346 10.5189 1.75201C10.1771 1.26943 9.7246 0.875809 9.19934 0.604156C8.67408 0.332504 8.09135 0.190735 7.5 0.190735C6.90865 0.190735 6.32592 0.332504 5.80066 0.604156C5.2754 0.875809 4.82292 1.26943 4.48115 1.75201C4.13938 2.2346 3.91829 2.79209 3.8364 3.37774C3.75452 3.96339 3.81424 4.56014 4.01054 5.11796L0.257077 6.5718C0.18131 6.60136 0.116233 6.6531 0.0703636 6.72026C0.0244939 6.78742 -3.07053e-05 6.86686 2.88515e-08 6.94819V15.6546C-2.29732e-05 15.7361 0.0245817 15.8156 0.0705841 15.8829C0.116587 15.9501 0.181837 16.0018 0.257769 16.0313L7.35392 18.782C7.40052 18.8 7.45005 18.8093 7.5 18.8093C7.54944 18.8083 7.59827 18.7981 7.644 18.7793L7.64608 18.782L14.7429 16.0313C14.8187 16.0017 14.8838 15.9499 14.9297 15.8827C14.9756 15.8155 15.0001 15.736 15 15.6546V6.94819C15 6.86686 14.9755 6.78742 14.9296 6.72026C14.8838 6.6531 14.8187 6.60136 14.7429 6.5718ZM13.4795 6.94819L12.1694 7.45588L9.99831 6.6205C10.2456 6.39292 10.461 6.13286 10.6385 5.84742L13.4795 6.94819ZM9.204 7.18034L11.0502 7.89042L10.0078 8.29427L8.09562 7.54727C8.48227 7.48481 8.85646 7.36094 9.204 7.18034ZM10.4605 8.98473L11.8168 8.45903V10.1416L11.5899 9.99365C11.5106 9.942 11.4156 9.91985 11.3216 9.93107C11.2276 9.94229 11.1405 9.98616 11.0755 10.055L10.4605 10.7076V8.98473ZM7.5 1.00865C8.07189 1.00865 8.63094 1.17824 9.10645 1.49596C9.58196 1.81369 9.95258 2.26529 10.1714 2.79365C10.3903 3.322 10.4475 3.9034 10.336 4.4643C10.2244 5.0252 9.94901 5.54043 9.54463 5.94482C9.14024 6.3492 8.62501 6.6246 8.06411 6.73617C7.50321 6.84774 6.92182 6.79048 6.39346 6.57162C5.8651 6.35277 5.4135 5.98215 5.09577 5.50664C4.77805 5.03113 4.60846 4.47208 4.60846 3.90019C4.60932 3.13357 4.91423 2.39859 5.45632 1.85651C5.9984 1.31442 6.73338 1.00951 7.5 1.00865ZM4.59231 6.17788L4.05185 5.96673L4.36131 5.84673C4.43221 5.96146 4.50933 6.07224 4.59231 6.17857V6.17788ZM2.93792 6.3985L8.89269 8.72627L7.5 9.26603L1.52054 6.94819L2.93792 6.3985ZM0.807692 15.378V7.53803L7.09615 9.97588V17.8158L0.807692 15.378ZM7.90385 17.8158V9.97588L9.65285 9.29742V11.7253C9.65288 11.8062 9.67721 11.8852 9.72268 11.9521C9.76814 12.0191 9.83265 12.0708 9.90785 12.1006C9.95518 12.1195 10.0057 12.1292 10.0567 12.1292C10.1118 12.1292 10.1663 12.118 10.2168 12.0961C10.2674 12.0743 10.3129 12.0424 10.3507 12.0023L11.4318 10.8546L12.0002 11.2239C12.0612 11.2633 12.1316 11.2855 12.204 11.2883C12.2765 11.291 12.3484 11.2742 12.4122 11.2396C12.4759 11.205 12.5292 11.1539 12.5663 11.0916C12.6035 11.0293 12.6232 10.9581 12.6233 10.8856V8.14588L14.1923 7.53803V15.378L7.90385 17.8158Z" fill="#95CCB5"/>
<path d="M6.78028 5.08857C6.85477 5.1516 6.94956 5.18554 7.04714 5.1841C7.14471 5.18266 7.23846 5.14593 7.31105 5.08072L9.26958 3.32041C9.31109 3.28555 9.34516 3.2427 9.36975 3.1944C9.39434 3.14611 9.40896 3.09335 9.41274 3.03928C9.41652 2.98522 9.40937 2.93094 9.39173 2.87969C9.37409 2.82845 9.34631 2.78127 9.31005 2.74099C9.2738 2.7007 9.2298 2.66813 9.18069 2.6452C9.13157 2.62228 9.07835 2.60947 9.02419 2.60755C8.97002 2.60563 8.91602 2.61463 8.86541 2.63402C8.8148 2.65341 8.76861 2.68279 8.72959 2.72041L7.03297 4.24556L6.26036 3.59249C6.17856 3.52333 6.07264 3.48949 5.96589 3.49843C5.85915 3.50737 5.76033 3.55834 5.69117 3.64014C5.62201 3.72194 5.58818 3.82786 5.59711 3.93461C5.60605 4.04135 5.65702 4.14017 5.73882 4.20933L6.78028 5.08857Z" fill="#95CCB5"/>
</svg>
