<svg width="22" height="21" viewBox="0 0 22 21" fill="none" xmlns="http://www.w3.org/2000/svg">
<path d="M9.6282 0.0669282C11.2933 0.0675018 12.9237 0.543379 14.3283 1.43878C15.733 2.33418 16.8536 3.61199 17.5589 5.12243C18.2642 6.63287 18.5249 8.31334 18.3104 9.96686C18.096 11.6204 17.4153 13.1784 16.3481 14.4584L21.3403 19.4336C21.4149 19.5077 21.4742 19.5959 21.5146 19.693C21.555 19.7902 21.5758 19.8944 21.5758 19.9996C21.5758 20.1049 21.555 20.2091 21.5146 20.3063C21.4742 20.4034 21.4149 20.4916 21.3403 20.5657C21.2659 20.6396 21.1777 20.6981 21.0807 20.7378C20.9836 20.7775 20.8798 20.7976 20.775 20.797C20.6702 20.7976 20.5663 20.7775 20.4693 20.7378C20.3723 20.6981 20.2841 20.6396 20.2097 20.5657L15.2016 15.5826C14.1193 16.4832 12.8362 17.1095 11.461 17.4083C10.0857 17.7071 8.65883 17.6696 7.3011 17.2991C5.94338 16.9286 4.69481 16.2359 3.66111 15.2797C2.62741 14.3235 1.83902 13.1319 1.3627 11.8059C0.886374 10.4799 0.736147 9.05844 0.924734 7.66195C1.11332 6.26547 1.63517 4.93505 2.44609 3.78335C3.25701 2.63165 4.33313 1.69258 5.58332 1.04566C6.83351 0.398743 8.22096 0.0630231 9.6282 0.0669282ZM9.6282 16.0131C11.0455 16.0131 12.4309 15.5923 13.6093 14.8038C14.7877 14.0153 15.7062 12.8946 16.2485 11.5834C16.7909 10.2722 16.9328 8.82936 16.6563 7.4374C16.3798 6.04543 15.6973 4.76683 14.6952 3.76328C13.693 2.75973 12.4162 2.07631 11.0262 1.79943C9.63615 1.52255 8.19534 1.66465 6.88597 2.20777C5.57659 2.75089 4.45744 3.67062 3.67006 4.85068C2.88267 6.03073 2.4624 7.41809 2.4624 8.83733C2.4624 10.7405 3.21737 12.5656 4.56121 13.9114C5.90506 15.2571 7.72771 16.0131 9.6282 16.0131Z" fill="#C4A370"/>
</svg>
