<svg width="16" height="15" viewBox="0 0 16 15" fill="none" xmlns="http://www.w3.org/2000/svg">
<path d="M15.0043 12.9678L13.658 5.15336C13.5872 4.44296 12.9494 3.94568 12.2408 3.94568H11.4614C11.4614 1.95656 9.90246 0.393677 7.91839 0.393677C5.93433 0.393677 4.37542 1.95656 4.37542 3.94568H3.59597C2.88737 3.94568 2.3205 4.44296 2.17878 5.15336L0.832449 12.9678C0.76159 13.394 0.903309 13.8202 1.18675 14.1044C1.47018 14.3886 1.82448 14.6017 2.24964 14.6017H13.5871C14.0123 14.6017 14.3666 14.3886 14.65 14.1044C14.9335 13.8202 15.0752 13.394 15.0043 12.9678ZM7.91839 1.81448C9.123 1.81448 10.0442 2.738 10.0442 3.94568H5.79261C5.79261 2.738 6.71378 1.81448 7.91839 1.81448ZM2.24964 13.1809L3.59597 5.36648H4.37542V6.07688C4.37542 6.50312 4.65886 6.78728 5.08402 6.78728C5.50917 6.78728 5.79261 6.50312 5.79261 6.07688V5.36648H10.0442V6.07688C10.0442 6.50312 10.3276 6.78728 10.7528 6.78728C11.1779 6.78728 11.4614 6.50312 11.4614 6.07688V5.36648H12.2408L13.5871 13.1809H2.24964Z" fill="#FAF7F5"/>
</svg>
