<svg width="30" height="26" viewBox="0 0 30 26" fill="none" xmlns="http://www.w3.org/2000/svg">
<path d="M9.43626 25.5787H9.30995C6.76534 25.5564 4.25752 24.9685 1.96808 23.8577C1.54694 23.6599 1.20019 23.3324 0.978587 22.9233C0.756981 22.5142 0.672159 22.0449 0.736536 21.5841C0.806551 21.1201 1.02135 20.6902 1.35026 20.3556C1.67918 20.021 2.10539 19.7989 2.56806 19.721C3.98687 19.5317 5.35179 19.0534 6.57846 18.3157C4.44878 16.6507 2.80924 14.4405 1.83358 11.9193C0.857932 9.3982 0.582517 6.66008 1.03653 3.99514C1.09808 3.57303 1.27962 3.17749 1.55953 2.85559C1.83945 2.53369 2.20595 2.29899 2.61542 2.17941C3.0138 2.0543 3.44016 2.04895 3.84155 2.16403C4.24294 2.27912 4.60169 2.50956 4.87325 2.82676C5.79533 4.03585 6.95407 5.04442 8.27878 5.79093C9.6035 6.53743 11.0664 7.00623 12.5783 7.16873C12.6505 5.30855 13.4499 3.55102 14.8045 2.27414C15.4809 1.62644 16.2795 1.11983 17.1536 0.783835C18.0278 0.447841 18.9601 0.289181 19.8962 0.317102C20.8322 0.345023 21.7534 0.558967 22.606 0.946465C23.4586 1.33396 24.2255 1.88727 24.8621 2.57413C25.028 2.72076 25.234 2.81421 25.4536 2.84236C25.6732 2.87051 25.8962 2.83207 26.0936 2.73202C26.4701 2.55447 26.8893 2.48764 27.3023 2.53931C27.7153 2.59099 28.1051 2.75904 28.4262 3.02388C28.7473 3.28871 28.9865 3.63939 29.1158 4.03502C29.2452 4.43064 29.2594 4.85489 29.1567 5.25826C28.7925 6.7584 28.1025 8.15995 27.1357 9.3634C26.9226 13.855 24.9424 18.0801 21.6268 21.1177C18.3113 24.1552 13.9293 25.7588 9.43626 25.5787ZM9.43626 22.4209H9.56258C11.3983 22.484 13.2283 22.1821 14.9465 21.5327C16.6647 20.8833 18.2369 19.8993 19.5719 18.6377C20.9069 17.3761 21.9782 15.862 22.7237 14.1833C23.4692 12.5045 23.8741 10.6945 23.9148 8.85815C23.9408 8.35488 24.1484 7.8781 24.499 7.51609C24.8841 7.0286 25.2125 6.49889 25.4779 5.93719C24.9091 5.93827 24.3464 5.81929 23.8268 5.58803C23.3071 5.35676 22.8421 5.01842 22.4622 4.59512C22.0968 4.23285 21.6629 3.94711 21.1857 3.75462C20.7085 3.56213 20.1978 3.46676 19.6833 3.47411C19.1637 3.46067 18.6465 3.54999 18.1615 3.73695C17.6765 3.92391 17.2332 4.20481 16.8571 4.56355C16.3496 5.04511 15.9775 5.65151 15.778 6.32207C15.5785 6.99262 15.5586 7.70382 15.7203 8.38448L16.1308 10.1844L14.2835 10.3107C12.3905 10.4651 10.4866 10.2062 8.70368 9.55185C6.92071 8.89755 5.30126 7.86353 3.95749 6.52138C3.89986 8.59984 4.41979 10.6536 5.45949 12.4542C6.49918 14.2549 8.01789 15.7319 9.84678 16.7211L11.3467 17.5737L10.352 18.9947C9.27631 20.4055 7.8024 21.4614 6.12058 22.0262C7.19946 22.2966 8.30825 22.4292 9.42048 22.4209H9.43626Z" fill="#C4A370"/>
</svg>
