<svg width="18" height="23" viewBox="0 0 18 23" fill="none" xmlns="http://www.w3.org/2000/svg">
<path d="M8.99723 9.84533C10.0515 9.84533 11.0821 9.56619 11.9588 9.04322C12.8354 8.52024 13.5186 7.77692 13.9221 6.90724C14.3255 6.03756 14.4311 5.0806 14.2254 4.15735C14.0197 3.23411 13.512 2.38605 12.7665 1.72043C12.021 1.05481 11.0712 0.601514 10.0372 0.41787C9.00315 0.234225 7.93134 0.328478 6.9573 0.68871C5.98327 1.04894 5.15074 1.65897 4.56501 2.44166C3.97928 3.22435 3.66664 4.14454 3.66664 5.08587C3.66664 6.34816 4.22826 7.55875 5.22794 8.45132C6.22762 9.34389 7.58347 9.84533 8.99723 9.84533ZM8.99723 1.9129C9.7001 1.9129 10.3872 2.099 10.9716 2.44765C11.556 2.7963 12.0115 3.29185 12.2805 3.87163C12.5494 4.45142 12.6198 5.08939 12.4827 5.70489C12.3456 6.32039 12.0071 6.88576 11.5101 7.3295C11.0131 7.77325 10.3799 8.07545 9.69053 8.19788C9.00118 8.32031 8.28664 8.25747 7.63728 8.01732C6.98792 7.77716 6.43291 7.37047 6.04242 6.84868C5.65193 6.32689 5.44351 5.71343 5.44351 5.08587C5.44351 4.24435 5.81792 3.43729 6.48437 2.84225C7.15082 2.2472 8.05473 1.9129 8.99723 1.9129ZM8.99723 11.4318C6.64097 11.4318 4.38121 12.2676 2.71507 13.7552C1.04894 15.2428 0.112915 17.2604 0.112915 19.3642V21.744C0.112915 21.9544 0.206518 22.1561 0.373131 22.3049C0.539744 22.4536 0.76572 22.5372 1.00135 22.5372C1.23697 22.5372 1.46295 22.4536 1.62956 22.3049C1.79618 22.1561 1.88978 21.9544 1.88978 21.744V19.3642C1.88978 17.6812 2.6386 16.0671 3.9715 14.877C5.30441 13.6869 7.11222 13.0183 8.99723 13.0183C10.8822 13.0183 12.6901 13.6869 14.023 14.877C15.3559 16.0671 16.1047 17.6812 16.1047 19.3642V21.744C16.1047 21.9544 16.1983 22.1561 16.3649 22.3049C16.5315 22.4536 16.7575 22.5372 16.9931 22.5372C17.2287 22.5372 17.4547 22.4536 17.6213 22.3049C17.788 22.1561 17.8816 21.9544 17.8816 21.744V19.3642C17.8816 17.2604 16.9455 15.2428 15.2794 13.7552C13.6133 12.2676 11.3535 11.4318 8.99723 11.4318Z" fill="#C4A370"/>
</svg>
